<?xml version="1.0" encoding="UTF-8"?>
<svg id="_레이어_2" data-name="레이어 2" xmlns="http://www.w3.org/2000/svg" viewBox="0 0 349.96 88.15">
  <defs>
    <style>
      .cls-1 {
        fill: #00263e;
      }
    </style>
  </defs>
  <g id="_레이어_1-2" data-name="레이어 1">
    <path class="cls-1" d="M129.46,1.52v50.62h36.02v-10.71h-24.33V1.52h-11.68ZM282.28,26.82c.09-6.83-2.6-13.39-7.46-18.19-4.84-4.78-11.44-7.35-18.24-7.12h-19.08v50.62h19.35c6.74.23,13.29-2.34,18.1-7.13,4.81-4.8,7.46-11.37,7.33-18.18h0s0,0,0,0ZM271.57,26.82c.16,3.89-1.33,7.67-4.11,10.45-2.78,2.77-6.6,4.27-10.56,4.15h-8.69V12.22h8.69c3.96-.22,7.83,1.23,10.63,3.99,2.81,2.77,4.28,6.58,4.05,10.48v.14h0ZM187.86,46.29h25.31v-.42c1.26,3.15,2.18,5.52,2.5,6.26h11.85L205.89,1.52h-10.25l-22.1,51.59h11.72c.32-.8,1.24-3.33,2.48-6.7l.11-.11h0ZM209.39,35.59h-17.34l8.74-22.71,8.6,22.71ZM68.14,27.49c-.35,7.27,2.33,14.35,7.4,19.53,5.05,5.16,12.03,7.93,19.22,7.62,7.83.18,15.41-2.78,21.07-8.22v-23.49h-18.49v10.71h8.76v7.56c-3.07,2.04-6.64,3.08-10.27,3.01-4.13-.05-8.07-1.85-10.91-5.01-2.86-3.16-4.38-7.39-4.24-11.75-.04-8.62,6.22-15.8,14.34-16.47,4.78-.51,9.56.99,13.31,4.16h.17l5.94-8.9C108.82,1.82,101.8-.39,94.69.06c-7.14-.11-14.02,2.74-19.03,7.9-5.02,5.17-7.73,12.17-7.52,19.4,0,0,0,.14,0,.14ZM340.68,79.39v-5.84h4.22c1.58,0,2.88,1.26,2.94,2.84,0,1.64-1.31,2.98-2.94,3,0,0-4.22,0-4.22,0ZM338.74,86.75c0,.23.19.43.43.43h1.09c.24,0,.43-.19.43-.43v-5.41h3.34l2.8,5.64c.07.12.2.2.33.2h2.36c.15,0,.3-.07.38-.2.08-.13.08-.3,0-.43l-3.03-5.65c1.81-.78,3-2.55,3.03-4.52,0-1.28-.52-2.5-1.44-3.4-.91-.89-2.14-1.39-3.41-1.37h-5.9c-.23,0-.42.19-.42.42h0v14.73ZM321.22,86.75c0,.23.19.43.43.43h8.88c.23,0,.42-.19.42-.42v-1.1c0-.23-.19-.43-.43-.43h-7.36v-4.87h6.39c.23,0,.42-.19.42-.42v-1.13c-.02-.21-.21-.37-.45-.39h-6.37v-4.87h7.36c.23,0,.43-.19.43-.43v-1.09c0-.23-.19-.43-.43-.43h-8.89c-.23,0-.42.19-.42.42v14.73ZM307.59,86.73c.03.24.47.45.47.45h1.02c.24,0,.44-.19.46-.43v-13.2h4.44c.24,0,.43-.19.43-.43v-1.13c0-.21-.2-.39-.44-.39h-9.85c-.23,0-.42.19-.42.42v1.1c0,.23.19.43.43.43h2.49l.97,13.18h0ZM283.25,86.74c.02.23.21.42.46.44h1.73s.43-.21.73-.45v-11l9.46,12.42h.57s.41-.95.68-1.17v-15.2c-.27-.23-.45-.41-.68-.18h-1.42c-.24-.25.15.18.15.18v10.58l-10.6-11.74h-.62c-.24,0-.44.17-.46.4v15.71h0ZM265.73,86.75c0,.23.19.42.42.42h8.89c.23,0,.42-.19.42-.42v-1.27c-.08-.17-.25-.27-.44-.25h-7.35v-4.87h6.33c.25.02.46-.14.48-.35,0-.01,0-.03,0-.04v-1.17c-.02-.22-.23-.39-.49-.39h-6.33v-4.87h7.36c.23,0,.42-.19.42-.42v-1.1c0-.23-.19-.43-.43-.43h-8.89c-.23,0-.42.19-.42.42v14.73ZM244.68,79.29c0,2.15.86,4.22,2.38,5.74,1.52,1.52,3.58,2.36,5.73,2.34,2.03.03,3.99-.73,5.45-2.14.17-.17.17-.44,0-.61l-1.03-1.03c-.15-.14-.38-.14-.53,0-1.07.93-2.44,1.46-3.86,1.5-3.05-.25-5.39-2.8-5.38-5.85,0-3.07,2.35-5.62,5.38-5.86,1.43.02,2.81.55,3.89,1.5.21.21.39.21.57,0l.99-1c.18-.16.19-.43.04-.61-.01-.01-.02-.02-.04-.04-1.46-1.44-3.43-2.25-5.48-2.24-2.15,0-4.22.85-5.74,2.38-1.52,1.53-2.37,3.61-2.36,5.77M216.99,86.55c-.08.13-.07.3,0,.43.08.13.22.21.38.2h1.71c.15,0,.3-.08.38-.21l3.48-5.67,3.48,5.67c.07.14.22.23.38.21h1.67c.15,0,.3-.07.38-.2.08-.13.08-.3,0-.43l-4.52-7.31,4.38-7c.08-.13.08-.3,0-.43-.08-.13-.22-.21-.38-.2h-1.88c-.14,0-.28.08-.35.21l-3.17,5.32-3.13-5.32c-.08-.14-.23-.22-.38-.21h-1.84c-.15,0-.3.07-.38.2-.08.13-.08.3,0,.43l4.35,7-4.56,7.31h0ZM200.52,86.75c0,.23.19.43.42.43h8.89c.24,0,.43-.19.43-.43v-1.13c0-.22-.2-.4-.44-.4h-7.35v-4.87h6.33c.25.02.46-.14.48-.35,0-.01,0-.03,0-.04v-1.17c-.02-.22-.23-.39-.49-.39h-6.33v-4.87h7.36c.23,0,.43-.19.43-.43v-1.1c0-.23-.19-.42-.42-.42h-8.89c-.23,0-.42.19-.42.43v14.72ZM179.03,79.29c.06-3.21,2.68-5.77,5.87-5.73,3.19.04,5.75,2.66,5.73,5.87-.02,3.21-2.61,5.8-5.8,5.8-3.19-.04-5.76-2.63-5.8-5.84M176.76,79.39c.15,4.44,3.83,7.93,8.25,7.83,4.42-.1,7.93-3.76,7.88-8.2-.05-4.44-3.64-8.02-8.06-8.02-2.16-.02-4.23.84-5.74,2.37-1.52,1.54-2.36,3.62-2.33,5.78M156.73,79.15c0,2.15.86,4.22,2.38,5.74,1.52,1.52,3.58,2.36,5.73,2.34,2.01.08,3.97-.64,5.45-1.99,0,0,.21-.46,0-.61l-1.06-1.03c-.15-.14-.38-.14-.53,0-1.04.99-2.39,1.56-3.82,1.64-3.05-.25-5.39-2.8-5.38-5.85,0-3.07,2.35-5.62,5.38-5.86,1.42.03,2.79.56,3.86,1.5.21.21.43.21.57,0l.99-1c.18-.16.19-.43.04-.61-.01-.01-.02-.02-.04-.04-1.43-1.48-3.39-2.34-5.45-2.38-2.15,0-4.22.85-5.74,2.38-1.52,1.53-2.37,3.61-2.36,5.77M123.26,86.67c-.04.13,0,.27.08.37.09.1.22.15.35.14h1.65s.34-.16.39-.34l1.63-10.07,4.07,10.36c.06.16.22.26.39,1.03h.39c.17-.76.34-.86.39-1.03l4.03-10.36,1.66,10.07c.05.19.42.34.42.34h1.65c.13.03.27-.03.35-.13.08-.11.1-.25.04-.38l-2.79-15.53c.03-.2-.06-.39-.22-.51h-.36c-.17.01-.32.11-.4.26l-4.78,11.81-4.82-11.81c-.07-.21-.29-.33-.5-.26,0,0,0,0,0,0h-.36c-.21.01-.39.16-.43.37l-2.83,15.67h0ZM107.61,81.33l2.73-6.16,2.87,6.16h-5.59ZM103.18,87.17h1.67s.41-.25.49-.45c.46-1.07.96-2.06,1.38-3.44h7.32l1.42,3.45c.09.2.5.45.5.45h1.33c.15.03.3-.04.38-.17.08-.13.08-.29,0-.42l-6.64-14.74c-.08-.14-.22-.22-.38-.24h-.31c-.16.01-.31.11-.39.25l-6.9,15.16c-.09.13-.09.3,0,.43.08.13.24.2.39.17M83.71,86.76c.02.22.2.4.43.41h1s.42-.32.52-.56v-10.89l9.64,12.42h.57s.41-.95.5-1.17v-15.2c-.09-.23-.28-.41-.5-.18h-1.42c-.24-.25-.03.18-.03.18v10.94l-9.71-11.12h-.57c-.22,0-.41.16-.43.38,0,0,0,14.78,0,14.78ZM61.11,79.18c0,2.16.86,4.22,2.38,5.74,1.52,1.52,3.58,2.36,5.73,2.34,1.95,0,3.87-.52,5.56-1.49.11-.09.17-.22.18-.36v-5.59c.02-.22-.14-.41-.36-.43-.01,0-.02,0-.03,0h-3.79s-.42.34-.69.58h0v1.32c.26.22.44.39.65.39.01,0,.02,0,.03-.34h2.23v2.86c-1.04.52-2.2.79-3.36.78-3.05-.25-5.39-2.8-5.38-5.85,0-3.07,2.35-5.62,5.38-5.85,1.41.04,2.77.58,3.82,1.53.14.17.38.19.55.05.02-.02.04-.03.05-.05.32-.39.67-.71.99-1.07.18-.16.19-.43.04-.61-.01-.01-.02-.02-.04-.04-2.37-2.15-5.79-2.69-8.71-1.38-2.93,1.31-4.81,4.22-4.81,7.43M40.88,86.58c-.07.23.34.59.34.59h1.42s.43-.36.19-.59v-10.85l9.86,12.42h.6c.22-.78.25-1.17.25-1.17v-15.2s-.02-.41-.25-.18h-1.45c-.24-.25-.43-.06-.25.18h0v10.68l-9.84-10.86h-.56s-.41-.43-1.28-.21l.97,15.2h0ZM23.88,81.33l2.73-6.16,2.87,6.16h-5.59ZM19.47,87.17h1.65s.4-.15.49-.34c.46-1.07.92-2.06,1.38-3.55h7.32l1.38,3.55c.1.2.53.34.53.34h1.49c.24,0,.44-.2.44-.44,0-.06-.01-.12-.04-.18l-7-15.53c-.06-.19-.21-.34-.4-.4h-.16c-.16.03-.3.12-.39.25l-6.87,15.3c-.09.13-.09.3,0,.43.08.13.24.2.39.17M0,79.29c0,2.15.85,4.21,2.37,5.73,1.51,1.51,3.57,2.36,5.7,2.35,1.95,0,3.87-.52,5.56-1.5v-6.05c0-.24-.19-.43-.43-.43h-4.29s-.43.45-.15.68h0v1.32c-.28.22-.1.39.11.39.01,0,.02,0,.04-.45h2.77v2.97c-1.1.55-2.31.82-3.54.78-3.05-.25-5.39-2.8-5.38-5.85,0-3.07,2.35-5.62,5.38-5.86,1.41.04,2.77.58,3.82,1.53.21.21.39.21.57,0l1.03-1.07c.17-.18.17-.46,0-.64-2.38-2.06-5.75-2.54-8.61-1.24-2.87,1.31-4.73,4.16-4.76,7.32"/>
  </g>
</svg>