<?xml version="1.0" encoding="UTF-8"?>
<svg id="_레이어_2" data-name="레이어 2" xmlns="http://www.w3.org/2000/svg" viewBox="0 0 378.89 47.36">
  <g id="_레이어_1-2" data-name="레이어 1">
    <path d="M286.28,10.52h32.63V0h-32.63v10.52ZM275.75,23.15h10.52v-12.63h-10.52v12.63ZM165.24,13.68h85.25V0h-85.25v13.68ZM166.29,33.68V13.68h-14.73V0h-17.89v14.73H17.89V0H0v47.36h17.89v-14.73h115.77v14.73h17.89v-13.68h14.73ZM250.49,33.68h-85.25v13.68h85.25v-13.68ZM275.75,47.36v-23.15h-10.52v-9.47h-13.68v18.94h13.68v13.68h10.52ZM286.28,34.73h32.63v-10.52h-32.63v10.52ZM319.95,23.15h10.52v-12.63h-10.52v12.63ZM348.37,47.36V7.37h-7.37v16.84h-10.52v23.15h17.89ZM363.1,7.37h8.43V0h-23.15v7.37h7.37v39.99h7.37V7.37ZM378.88,7.37h-7.35v39.99h7.37V7.37Z"/>
  </g>
</svg>