<?xml version="1.0" encoding="UTF-8"?>
<svg id="_레이어_2" data-name="레이어 2" xmlns="http://www.w3.org/2000/svg" viewBox="0 0 404.83 76.35">
  <g id="_레이어_1-2" data-name="레이어 1">
    <path d="M358.72,39.51h6.75v-21.66c0-2.25,1.51-3.25,3.65-1.83l35.7,23.76V1.28h-6.75v21.66c0,2.25-1.51,3.25-3.65,1.83L358.72,1.02v38.5ZM332.86,28.27h-17.54c-2,0-2.63-1.68-1.47-3.21l8.31-11.05c1.52-2,2.89-2,4.42,0l8.31,11.05c1.16,1.53.53,3.21-1.47,3.21M303.21,38.39l2.26-2.24c1-1.32,2.21-2.05,3.74-2.26h30.31c1.53.2,2.74.94,3.74,2.26l2.26,2.24h8.42L324.36.47l-29.57,37.91h8.42ZM283.38,39.51h6.75V1.28h-6.75v38.23ZM257.51,21.52h-18.21c-1.74,0-3.16-1.41-3.16-3.16v-8.31c0-1.74,1.41-3.16,3.16-3.16h18.59c5.74,0,9.3,2.39,9.3,7.28s-3.56,7.34-9.3,7.34M256.38,28.99l11.68,10.52h9.43l-11.69-10.49c-1.15-1.05-1-2.62.68-3.41,3.98-1.89,7.92-5.3,7.92-11.22,0-8.34-5.56-13.11-16.31-13.11h-28.69v38.23h6.75v-9.21c0-1.74,1.41-3.16,3.16-3.16h12.13c2.53,0,3.79.47,4.95,1.53M184.42,6.9h14.71c10.74,0,16.45,5.5,16.45,12.91s-5.71,12.96-16.45,12.96h-14.93c-1.74,0-3.16-1.41-3.16-3.16V10.08c0-2.12,1.06-3.17,3.17-3.17M197.92,1.28h-24.74v38.23h25.23c13.27,0,23.39-7.5,23.39-19.14S211.67,1.28,198.25,1.28M118.07,39.51h6.75v-21.66c0-2.25,1.51-3.25,3.65-1.83l35.7,23.76V1.28h-6.75v21.66c0,2.25-1.51,3.25-3.65,1.83L118.07,1.02v38.5ZM85.49,33.52c-10.79,0-18.26-5.84-18.26-13.63s7.47-13.58,18.26-13.58,18.15,5.84,18.15,13.58-7.42,13.63-18.15,13.63M85.49,39.83c14.73,0,25.52-8.47,25.52-19.94S100.17,0,85.49,0s-25.62,8.47-25.62,19.89,10.84,19.94,25.62,19.94M0,39.51h6.75v-16.94c0-1.84,1.81-2.37,3.19-.84l16.49,18.05,16.49-18.05c1.38-1.53,3.19-1,3.19.84v16.94h6.75V.89l-24.49,27.25c-1.21,1.37-2.67,1.37-3.88,0L0,.89v38.62ZM6.8,75.83c.97,0,1.88-.16,2.45-.38l1.97-1.97c1.63-1.63,2.47-2.98,2.47-4.92,0-2.44-1.5-4.36-4.82-5.42l-2.73-.88c-2.04-.66-2.92-1.63-2.92-3.2s1.25-3.01,3.42-3.01,3.61,1.1,3.79,3.7h2.94c0-4.51-3.29-6.49-6.39-6.49-1.41,0-2.26.31-2.7.5l-2.19,2.25c-1.31,1.38-1.81,2.7-1.81,4.11,0,2.38,1.31,4.14,4.76,5.24l2.54.81c2.51.82,3.17,2.07,3.17,3.48s-1.13,3.39-3.79,3.39c-2.48,0-3.89-1.53-3.98-4.29H.03c0,4.98,2.94,7.08,6.77,7.08M33.74,75.5v-2.25h-11.25v-6.75h10.12v-2.25h-10.12v-7.87h11.25v-2.25s-13.49,0-13.49,0v21.37h13.49ZM49.03,76.35c1.69,0,3.32-.31,4.32-.81l2.54-2.6c2.13-2.16,3.72-4.79,3.72-8.39-.03-6.11-4.82-10.74-10.96-10.74-1.85,0-3.41.41-4.22.88l-2.54,2.6c-1.97,2.03-3.66,4.7-3.66,8.36,0,6.01,4.82,10.7,10.8,10.7M49.38,73.56c-4.39,0-8.23-3.38-8.23-8.92,0-5.13,3.41-8.05,7.2-8.05,4.26,0,8.36,3.32,8.36,8.96,0,5.07-3.51,8.01-7.33,8.01M73.83,76.35c1.25,0,2.32-.31,2.79-.5l2.72-2.81c2.22-2.29,2.75-3.66,2.75-6.89v-12.01h-3.37v13.55c0,3.94-2.36,5.89-5.07,5.89s-5.05-1.94-5.05-5.89v-13.55h-3.37v13.83c0,5.64,3.6,8.39,8.14,8.39M102.33,75.5v-2.25h-10.12v-19.12h-3.37v21.37h13.49ZM119.2,54.13h-3.37v21.37h3.37v-21.37ZM133.82,75.5v-19.12h6.75v-2.25h-16.87v2.25h6.75v19.12h3.37ZM161.45,75.5l-7.66-21.37h-4.15l-7.66,21.37h2.84s2.01-5.62,2.01-5.62h9.64l1.98,5.62h3ZM151.68,56.51l3.88,11.12h-7.82l3.94-11.12ZM179.92,75.5v-2.25h-10.12v-6.75h10.12v-2.25h-10.12v-7.87h10.12v-2.25h-13.49v21.37h13.49ZM205.36,72.72l-4.24-18.59h-3.97l-4.33,18.62-4.67-18.62h-3.05l5.65,21.37h4.03l4.24-18.23,4.24,18.23h3.97l5.68-21.37h-2.99l-4.55,18.59ZM227.79,76.35c1.69,0,3.32-.31,4.32-.81l2.54-2.6c2.12-2.16,3.72-4.79,3.72-8.39-.03-6.11-4.82-10.74-10.96-10.74-1.85,0-3.41.41-4.23.88l-2.54,2.6c-1.97,2.03-3.66,4.7-3.66,8.36,0,6.01,4.82,10.7,10.8,10.7M228.13,73.56c-4.38,0-8.23-3.38-8.23-8.92,0-5.13,3.41-8.05,7.2-8.05,4.26,0,8.36,3.32,8.36,8.96,0,5.07-3.51,8.01-7.33,8.01M258.64,72.66l-9.86-18.52h-4.75v21.37h3.37v-18.44l10.53,18.44h4.09v-21.37h-3.37v18.52Z"/>
  </g>
</svg>