<?xml version="1.0" encoding="UTF-8"?>
<svg id="_레이어_2" data-name="레이어 2" xmlns="http://www.w3.org/2000/svg" viewBox="0 0 393.66 74.52">
  <defs>
    <style>
      .cls-1 {
        fill: #ae8400;
      }

      .cls-2 {
        fill: #342d2c;
      }
    </style>
  </defs>
  <g id="_레이어_1-2" data-name="레이어 1">
    <g>
      <path class="cls-1" d="M49.83,45.33c-2.34,0-5.42-1.34-8.38-3.25,4.66-4.07,8.32-8.52,8.32-11.2s-3.66-7.14-8.32-11.2c2.96-1.92,6.04-3.25,8.38-3.25,6.35,0,18.17,9.83,18.17,14.46s-11.82,14.46-18.17,14.46M43.05,30.87c0,2.1-2.44,5.27-5.7,8.11-3.26-2.84-5.7-6.01-5.7-8.11s2.44-5.27,5.7-8.11c3.25,2.84,5.7,6.01,5.7,8.11M24.88,45.33c-6.35,0-18.17-9.83-18.17-14.46s11.82-14.46,18.17-14.46c2.34,0,5.42,1.34,8.38,3.25-4.66,4.07-8.31,8.52-8.31,11.2s3.66,7.14,8.31,11.2c-2.96,1.92-6.04,3.25-8.38,3.25M49.83,10.45c-3,0-7.85,2.55-12.47,5.94-4.63-3.39-9.47-5.94-12.47-5.94C17.72,10.45,0,24.96,0,30.87s17.72,20.42,24.88,20.42c3,0,7.85-2.55,12.47-5.94,4.62,3.39,9.47,5.94,12.47,5.94,7.16,0,24.88-14.51,24.88-20.42s-17.72-20.41-24.88-20.41"/>
      <g>
        <path class="cls-2" d="M357.59,17.32c.25-2.31.39-4.64.42-6.96,0-4.44-.66-8.73-.66-9.44h-1.88c0,.7-.65,4.92-.65,9.29s.65,8.6.65,9.3h18.49v-2.19h-16.37Z"/>
        <path class="cls-2" d="M315.43,17.32c.16-1.85.35-3.94.4-5.47h12.2v-3.28h-11.78c-.06-1.83-.19-3.65-.38-5.47h16.53V.92h-19.33c0,.74-.65,4.94-.65,9.28s.65,8.54.65,9.31h20.43v-2.19h-18.06Z"/>
        <path class="cls-2" d="M291.95.92h-21.87v2.19h9.71c-.25,2.31-.39,4.64-.41,6.96,0,4.44.66,8.73.66,9.44h2.17c0-.71.66-4.99.66-9.44,0-2.61-.22-5.16-.42-6.96h9.49V.92Z"/>
        <path class="cls-2" d="M247.97,19.51c0-.7.65-4.92.65-9.3s-.65-8.6-.65-9.29h-2.13c0,.7-.65,4.92-.65,9.29s.65,8.6.65,9.3h2.13Z"/>
        <path class="cls-2" d="M224.15,3.11V.92h-18.49c0,.7-.65,4.92-.65,9.3s.65,8.6.65,9.29h2.28c0-.6.51-3.94.6-7.65h10.15v-3.28h-11.66c-.06-1.83-.21-3.65-.43-5.47h17.56Z"/>
        <path class="cls-2" d="M169.33,17.43c-3.17,0-9.08-4.92-9.08-7.23s5.91-7.23,9.08-7.23,9.08,4.92,9.08,7.23-5.91,7.23-9.08,7.23M169.33,0c-3.58,0-12.44,7.25-12.44,10.2s8.86,10.21,12.44,10.21,12.44-7.25,12.44-10.21-8.86-10.2-12.44-10.2"/>
        <path class="cls-2" d="M133.97,10.86c-4.35-2.7-14.43-2.95-14.43-5.54,0-1.35,3.16-2.65,6.81-2.53,2.06.07,5.28.82,7.48,2.52l1.46-2.13c-3.03-1.99-6.43-2.68-9.36-2.73-6.34-.11-9.86,3.02-9.86,5.04,0,1.64,2.04,3.12,3.72,3.81,6.11,2.52,12.84,2.48,12.84,5.07,0,1.48-2.85,3.18-6.79,3.11-2.86-.05-6.46-1.26-8.64-3.08l-1.55,2.26c2.22,1.57,6.23,3.27,10.19,3.27s6.69-.99,8.45-2.42c1.77-1.43,2.05-2.82,2.05-3.38,0-.83-.7-2.24-2.38-3.28"/>
        <path class="cls-2" d="M152.81,48.92l-1.69,3.4h4.12l-1.66-3.4-.36-.98h-.03l-.37.98ZM155.78,53.41h-5.22l-.92,2.19h-1.51l4.29-8.75h1.55l4.31,8.75h-1.59l-.91-2.19Z"/>
        <path class="cls-2" d="M164.08,46.85l3.78,6.67,3.79-6.67h1.11v7.65h-1.09v-4.68l.28-.82h-.02s-.42.71-.42.71l-3.16,4.79h-.99l-3.15-4.74-.41-.73h-.87s1.09.84,1.09.84v4.63h-1.09v-7.65h1.17Z"/>
        <path class="cls-2" d="M183.69,51.22h-3.28v2.19h2.85c1.07,0,1.69-.32,1.69-1.13,0-.63-.56-1.06-1.7-1.06M183.69,47.94h-3.28v2.19h3.03c.98,0,1.58-.39,1.58-1.09s-.57-1.1-1.76-1.1M183.69,54.5h-4.37v-7.65h3.94c1.88,0,2.83.78,2.83,1.94,0,.96-.57,1.48-1.31,1.69v.02c1.11.22,1.72.89,1.72,1.79,0,1.33-.84,2.21-3.02,2.21"/>
        <path class="cls-2" d="M194.63,48.92l-1.69,3.4h4.12l-1.66-3.4-.36-.98h-.03l-.37.98ZM197.6,53.41h-5.22l-.92,2.19h-1.51l4.29-8.75h1.55l4.31,8.75h-1.59l-.91-2.19Z"/>
        <path class="cls-2" d="M206.96,55.12c-1.27,0-2.34-.28-3.26-.71l.19-1.18c.96.51,2.04.76,3.12.75,1.53,0,2.29-.55,2.29-1.24,0-1.64-5.52-.48-5.51-3.3,0-1.16.98-2.33,3.53-2.33,1.07,0,2.16.18,2.99.49l-.2,1.12c-.89-.3-1.83-.46-2.77-.47-1.67,0-2.22.61-2.22,1.1,0,1.6,5.51.37,5.51,3.28,0,1.41-1.3,2.48-3.67,2.48"/>
        <path class="cls-2" d="M217.8,55.12c-1.27,0-2.34-.28-3.26-.71l.19-1.18c.96.51,2.04.76,3.12.75,1.53,0,2.29-.55,2.29-1.24,0-1.64-5.52-.48-5.51-3.3,0-1.16.98-2.33,3.53-2.33,1.07,0,2.15.18,2.99.49l-.2,1.12c-.89-.3-1.83-.46-2.77-.47-1.67,0-2.22.61-2.22,1.1,0,1.6,5.52.37,5.52,3.28,0,1.41-1.31,2.48-3.68,2.48"/>
        <path class="cls-2" d="M229.38,48.92l-1.7,3.4h4.12l-1.66-3.4-.36-.98h-.03l-.37.98ZM232.34,53.41h-5.21l-.92,2.19h-1.51l4.29-8.75h1.55l4.31,8.75h-1.59l-.91-2.19Z"/>
        <path class="cls-2" d="M242.74,47.94h-2.19v5.47h2.62c2.28,0,3.32-.77,3.32-2.74,0-1.83-.93-2.72-3.32-2.72M243.83,54.5h-4.37v-7.65h3.97c3.23,0,4.6,1.47,4.6,3.82,0,2.55-1.57,3.84-4.6,3.84"/>
        <path class="cls-2" d="M256.61,48.28c-2.28,0-3.15.86-3.15,2.82s.87,2.84,3.15,2.84,3.14-.9,3.14-2.84-.84-2.82-3.14-2.82M256.61,55.12c-3.33,0-4.62-1.55-4.62-4.01s1.28-3.98,4.62-3.98,4.61,1.52,4.61,3.98-1.27,4.01-4.61,4.01"/>
        <path class="cls-2" d="M270.08,49.03h-2.19v2.19h2.03c1.41-.24,2-.71,2-1.62,0-.82-.54-1.27-1.9-1.27M271.23,52.31v.02s.54.61.54.61l2.32,2.65h-1.91l-2.6-3.28h-2.78v2.19h-1.09v-7.65h4.36c2.24,0,3.31.87,3.31,2.29,0,1.1-.74,1.96-2.13,2.12"/>
        <path class="cls-2" d="M287.88,55.12c-1.27,0-2.34-.28-3.26-.71l.18-1.18c.96.51,2.04.76,3.12.75,1.53,0,2.29-.55,2.29-1.24,0-1.64-5.52-.48-5.51-3.3,0-1.16.98-2.33,3.53-2.33,1.07,0,2.16.18,2.99.49l-.2,1.12c-.89-.3-1.83-.46-2.77-.47-1.67,0-2.22.61-2.22,1.1,0,1.6,5.51.37,5.51,3.28,0,1.41-1.3,2.48-3.67,2.48"/>
        <path class="cls-2" d="M303.4,53.41l-.03,1.09h-7.04v-7.65h6.8l.03,1.09h-5.74v2.19h4.37v1.09h-4.37v2.19h5.99Z"/>
        <path class="cls-2" d="M312.02,48.28c-2.28,0-3.15.86-3.15,2.82s.87,2.84,3.15,2.84,3.14-.9,3.14-2.84-.84-2.82-3.14-2.82M312.02,55.12c-3.33,0-4.62-1.55-4.62-4.01s1.28-3.98,4.62-3.98,4.61,1.52,4.61,3.98-1.27,4.01-4.61,4.01"/>
        <path class="cls-2" d="M330.22,51.01c0,2.56-1.59,3.69-4.36,3.69s-4.39-1.14-4.39-3.69v-4.17h1.09v4.18c0,1.67.92,2.5,2.74,2.5,1.82,0,2.73-.83,2.72-2.5v-4.18h2.19v4.17Z"/>
        <path class="cls-2" d="M340.57,53.41l-.04,1.09h-5.94v-7.65h1.09v6.56h4.89Z"/>
        <path class="cls-2" d="M102.77,74.19v-3.28h-5.47v3.28h-1.09v-7.65h1.09v3.28h5.47v-3.28h1.09v7.65h-1.09Z"/>
        <path class="cls-2" d="M113.95,67.68c-2.28,0-3.15.86-3.15,2.82s.87,2.84,3.15,2.84,3.14-.91,3.14-2.84-.84-2.82-3.14-2.82M113.95,74.52c-3.32,0-4.62-1.55-4.62-4.01s1.28-3.98,4.62-3.98,4.61,1.52,4.61,3.98-1.27,4.01-4.61,4.01"/>
        <path class="cls-2" d="M126.83,67.62v6.56h-1.09v-6.56h-3.73l.03-1.09h8.01l.03,1.09h-3.24Z"/>
        <path class="cls-2" d="M141.52,73.09l-.03,1.09h-7v-7.65h6.76l.03,1.09h-5.7v2.19h4.37v1.09h-4.37v2.19h5.94Z"/>
        <path class="cls-2" d="M152.49,73.09l-.04,1.09h-5.94v-7.65h1.09v6.56h4.89Z"/>
        <path class="cls-2" d="M166.4,69.49c.96-.42,1.82-.78,1.82-1.37,0-.39-.44-.68-1.12-.68-.74,0-1.29.39-1.29.96,0,.28.21.66.59,1.09M168.61,72.73c-.93-.6-1.79-1.29-2.59-2.06-.67.41-1.16.9-1.16,1.62,0,.78.75,1.16,1.68,1.16.76,0,1.47-.28,2.06-.72M171.86,74.14c-.79-.33-1.56-.72-2.3-1.15-.89.77-2.03,1.19-3.2,1.18-2.1,0-2.81-1.12-2.81-2.16,0-1.19.85-1.88,1.84-2.39-.48-.59-.77-1.15-.77-1.59,0-.88.59-1.86,2.53-1.86,1.53,0,2.36.71,2.36,1.47,0,1.04-1.26,1.59-2.46,2.15.63.6,1.47,1.23,2.39,1.83.47-.56.79-1.2.91-1.81h1.08c-.05.6-.4,1.52-1.07,2.36.62.35,1.27.67,1.91.91l-.4,1.06Z"/>
        <path class="cls-2" d="M185.92,74.52c-1.27,0-2.34-.28-3.26-.71l.18-1.18c.96.51,2.04.76,3.12.75,1.53,0,2.29-.55,2.29-1.24,0-1.64-5.52-.48-5.51-3.3,0-1.16.98-2.33,3.53-2.33,1.02,0,2.03.16,2.99.49l-.2,1.12c-.89-.3-1.83-.46-2.77-.47-1.67,0-2.22.6-2.22,1.1,0,1.6,5.51.37,5.51,3.28,0,1.41-1.3,2.48-3.67,2.48"/>
        <path class="cls-2" d="M201.43,73.09l-.03,1.09h-6.78v-7.65h6.53l.03,1.09h-5.47v2.19h4.37v1.09h-4.37v2.19h5.71Z"/>
        <path class="cls-2" d="M209.93,67.62h-2.19v2.19h2.25c1.41.57,2,.1,2-.81,0-.82-.54-1.27-1.9-1.27M211.31,70.9v.02s.54.62.54.62l2.32,2.65h-1.04l-2.6-3.28h-2.79v3.28h-1.09v-7.65h3.49c2.24,0,3.31.87,3.31,2.29,0,1.1-.74,1.96-2.14,2.13"/>
        <path class="cls-2" d="M226.84,66.53l-4.1,7.65h-1.47l-4.1-7.65h1.52l2.97,5.82.36.74h.03l.36-.74,2.99-5.82h1.44Z"/>
        <path class="cls-2" d="M231.8,66.53h1.09v7.65h-1.09v-7.65Z"/>
        <path class="cls-2" d="M245.12,68.09c-.8-.27-1.63-.4-2.47-.4-2.45,0-3.4.89-3.4,2.79s.97,2.87,3.45,2.87c.92,0,1.76-.2,2.44-.49l.18,1.05c-.88.39-1.83.6-2.79.61-3.24,0-4.75-1.5-4.75-4.04,0-2.39,1.46-3.96,4.84-3.96.96,0,2.01.19,2.66.43l-.17,1.15Z"/>
        <path class="cls-2" d="M257.15,73.09l-.03,1.09h-6.73v-7.65h6.49l.03,1.09h-5.42v2.19h4.37v1.09h-4.37v2.19h5.67Z"/>
        <path class="cls-2" d="M265.7,67.62h-2.19v5.47h2.62c2.28,0,3.32-.77,3.32-2.74,0-1.83-.92-2.72-3.32-2.72M266.8,74.19h-4.37v-7.65h3.97c3.23,0,4.6,1.47,4.6,3.82,0,2.55-1.57,3.84-4.6,3.84"/>
        <path class="cls-2" d="M286.48,67.62h-3.28v2.19h2.87c1.41.57,2,.1,2-.81,0-.82-.54-1.27-1.9-1.27M287.38,70.9v.02s.54.62.54.62l2.32,2.65h-1.66l-2.6-3.28h-2.79v3.28h-1.09v-7.65h4.11c2.24,0,3.31.87,3.31,2.29,0,1.1-.74,1.96-2.14,2.13"/>
        <path class="cls-2" d="M301.75,73.09l-.03,1.09h-6.49v-7.65h6.24l.03,1.09h-5.18v2.19h4.37v1.09h-4.37v2.19h5.43Z"/>
        <path class="cls-2" d="M309.1,74.52c-1.27,0-2.34-.28-3.26-.71l.19-1.18c.96.51,2.04.76,3.12.75,1.53,0,2.29-.55,2.29-1.24,0-1.64-5.52-.48-5.51-3.3,0-1.16.98-2.33,3.53-2.33,1.07,0,2.16.18,2.99.49l-.2,1.12c-.89-.3-1.83-.46-2.77-.47-1.67,0-2.22.6-2.22,1.1,0,1.6,5.51.37,5.51,3.28,0,1.41-1.3,2.48-3.67,2.48"/>
        <path class="cls-2" d="M318.19,66.53h1.09v7.65h-1.09v-7.65Z"/>
        <path class="cls-2" d="M328.03,67.62h-2.19v5.47h2.62c2.28,0,3.32-.77,3.32-2.74,0-1.83-.92-2.72-3.32-2.72M329.12,74.19h-4.37v-7.65h3.97c3.23,0,4.6,1.47,4.6,3.82,0,2.55-1.57,3.84-4.6,3.84"/>
        <path class="cls-2" d="M345.29,73.09l-.03,1.09h-7.39v-7.65h7.14l.03,1.09h-4.99v2.19h4.37v1.09h-4.37v2.19h5.24Z"/>
        <path class="cls-2" d="M357.46,74.19l-5.58-5.2-.58-.59h-.03s.82.84.82.84v4.95h-2.19v-7.65h1.34l5.31,5.3.58.59.02-.02.4-.82v-3.96h1.09v6.56h-1.19Z"/>
        <path class="cls-2" d="M370.6,68.09c-.8-.27-1.63-.4-2.47-.4-2.45,0-3.4.89-3.4,2.79s.97,2.87,3.45,2.87c.92,0,1.76-.2,2.44-.49l.18,1.05c-.88.39-1.83.6-2.79.61-3.24,0-4.75-1.5-4.75-4.04,0-2.39,1.46-3.96,4.84-3.96.96,0,2.01.19,2.66.43l-.17,1.15Z"/>
        <path class="cls-2" d="M382.63,73.09l-.03,1.09h-7.55v-7.65h7.3l.03,1.09h-6.24v2.19h5.47v1.09h-5.47v2.19h6.48Z"/>
        <path class="cls-2" d="M389.98,74.52c-1.27,0-2.34-.28-3.26-.71l.19-1.18c.96.51,2.03.76,3.12.75,1.53,0,2.29-.55,2.29-1.24,0-1.64-5.52-.48-5.51-3.3,0-1.16.98-2.33,3.53-2.33,1.02,0,2.03.16,2.99.49l-.2,1.12c-.89-.3-1.83-.46-2.77-.47-1.67,0-2.22.6-2.22,1.1,0,1.6,5.51.37,5.51,3.28,0,1.41-1.3,2.48-3.67,2.48"/>
      </g>
    </g>
  </g>
</svg>